<?xml version="1.0" encoding="UTF-8" standalone="no"?>
<!-- Created with Inkscape (http://www.inkscape.org/) -->

<svg
   xmlns:dc="http://purl.org/dc/elements/1.1/"
   xmlns:cc="http://creativecommons.org/ns#"
   xmlns:rdf="http://www.w3.org/1999/02/22-rdf-syntax-ns#"
   xmlns:svg="http://www.w3.org/2000/svg"
   xmlns="http://www.w3.org/2000/svg"
   xmlns:sodipodi="http://sodipodi.sourceforge.net/DTD/sodipodi-0.dtd"
   xmlns:inkscape="http://www.inkscape.org/namespaces/inkscape"
   version="1.1"
   id="svg10"
   width="384"
   height="384"
   viewBox="0 0 384 384"
   sodipodi:docname="blackc4t.svg"
   inkscape:version="0.92.3 (2405546, 2018-03-11)">
  <metadata
     id="metadata16">
    <rdf:RDF>
      <cc:Work
         rdf:about="">
        <dc:format>image/svg+xml</dc:format>
        <dc:type
           rdf:resource="http://purl.org/dc/dcmitype/StillImage" />
        <dc:title></dc:title>
      </cc:Work>
    </rdf:RDF>
  </metadata>
  <defs
     id="defs14" />
  <sodipodi:namedview
     pagecolor="#ffffff"
     bordercolor="#666666"
     borderopacity="1"
     objecttolerance="10"
     gridtolerance="10"
     guidetolerance="10"
     inkscape:pageopacity="0"
     inkscape:pageshadow="2"
     inkscape:window-width="1920"
     inkscape:window-height="1001"
     id="namedview12"
     showgrid="false"
     inkscape:zoom="0.52604167"
     inkscape:cx="175.78745"
     inkscape:cy="-115.9925"
     inkscape:window-x="-9"
     inkscape:window-y="-9"
     inkscape:window-maximized="1"
     inkscape:current-layer="svg10" />
  <rect
     style="opacity:1;fill:#ffffff;fill-opacity:1"
     id="rect22"
     width="380.19803"
     height="378.297"
     x="1.9009901"
     y="3.8019805" />
  <path
     style="fill:#000000"
     d="m 176,314.88411 c -25.36361,-1.43756 -33,-3.3388 -33,-8.21603 0,-3.47624 2.08301,-5.53969 6.5,-6.43897 l 4,-0.81438 0.29983,-9.95736 c 0.48869,-16.22903 -1.14632,-25.1468 -7.23424,-39.45737 -9.47503,-22.27248 -11.01763,-29.40916 -10.30994,-47.69795 0.40194,-10.38717 1.17907,-15.43985 4.11986,-26.78587 5.53157,-21.34163 4.9194,-26.80015 -3.98309,-35.51618 -9.06307,-8.87324 -11.9062,-19.09822 -8.97449,-32.27569 l 1.63769,-7.36113 -2.59268,-5.663172 c -2.64621,-5.780073 -6.24114,-22.255145 -5.10424,-23.39204 1.1287,-1.1287 8.95524,1.75868 18.5329,6.837191 l 9.39161,4.979852 8.87046,-1.255479 c 7.26386,-1.028087 10.27196,-1.012045 16.6084,0.08858 4.25586,0.73923 8.51724,1.304652 9.46972,1.256494 0.95248,-0.04816 4.58988,-2.127049 8.08309,-4.619757 6.83735,-4.879032 16.10281,-9.569265 18.93512,-9.585076 1.4246,-0.008 1.7471,0.873461 1.73438,4.740231 -0.0238,7.251481 -2.2765,15.296073 -6.36711,22.738032 l -3.70321,6.737154 1.66777,5.02117 c 2.06083,6.20459 1.50831,16.48017 -1.19659,22.25364 -1.03071,2.2 -3.90154,6.925 -6.37963,10.5 -4.04424,5.8344 -4.49958,7.0632 -4.44676,12 0.0999,9.34028 1.66775,12.16656 11.76831,21.21463 23.37394,20.93839 31.38763,30.58244 39.31088,47.30858 8.44796,17.83382 9.86348,29.24424 6.77276,54.59493 -1.77292,14.54183 -1.45633,17.44836 2.07582,19.05772 3.72993,1.69947 6.89877,-1.04291 10.88902,-9.42357 C 269.97271,271.8966 274,253.43559 274,237.05051 274,219.5532 271.28694,213.85647 253.82877,194.69605 232.26546,171.03022 225.64482,158.41821 225.64117,141 c -0.002,-10.91181 0.33291,-12.83925 3.34855,-19.25474 4.676,-9.94777 14.62937,-18.28025 26.10124,-21.8507 8.10562,-2.522753 20.89802,-2.537076 26.41762,-0.02958 14.50369,6.58889 15.42254,24.91147 1.73181,34.53368 -8.13909,5.72037 -21.07629,4.08765 -22.82522,-2.88063 -1.07915,-4.29968 1.14716,-5.84483 7.36799,-5.1137 5.95573,0.69998 10.11693,-0.98061 12.23711,-4.94221 4.0505,-7.56842 -8.65993,-13.06757 -20.84733,-9.01956 -12.0909,4.01595 -19.21187,13.51648 -19.97191,26.64576 -0.79116,13.66675 3.6744,22.2977 20.90854,40.41168 16.33057,17.16428 20.96738,24.11175 24.95073,37.38447 1.96411,6.54451 2.14994,8.81942 1.63375,20 -1.05713,22.89751 -9.27124,55.08064 -16.92721,66.32134 -1.79676,2.63805 -4.61684,5.43229 -6.26684,6.20944 -3.99864,1.88333 -24.07043,4.37086 -45,5.5769 -18.81663,1.08429 -21.58722,1.07725 -42.5,-0.10804 z"
     id="path20"
     inkscape:connector-curvature="0" />
</svg>
