<?xml version="1.0" encoding="UTF-8"?>
<svg version="1.1" viewBox="0 0 384 384" xmlns="http://www.w3.org/2000/svg" xmlns:cc="http://creativecommons.org/ns#" xmlns:dc="http://purl.org/dc/elements/1.1/" xmlns:rdf="http://www.w3.org/1999/02/22-rdf-syntax-ns#">
<metadata>
<rdf:RDF>
<cc:Work rdf:about="">
<dc:format>image/svg+xml</dc:format>
<dc:type rdf:resource="http://purl.org/dc/dcmitype/StillImage"/>
<dc:title/>
</cc:Work>
</rdf:RDF>
</metadata>
<rect x="1.901" y="3.802" width="380.2" height="378.3" fill="#fff"/>
<path d="m176 314.88c-25.364-1.4376-33-3.3388-33-8.216 0-3.4762 2.083-5.5397 6.5-6.439l4-0.81438 0.29983-9.9574c0.48869-16.229-1.1463-25.147-7.2342-39.457-9.475-22.272-11.018-29.409-10.31-47.698 0.40194-10.387 1.1791-15.44 4.1199-26.786 5.5316-21.342 4.9194-26.8-3.9831-35.516-9.0631-8.8732-11.906-19.098-8.9745-32.276l1.6377-7.3611-2.5927-5.6632c-2.6462-5.7801-6.2411-22.255-5.1042-23.392 1.1287-1.1287 8.9552 1.7587 18.533 6.8372l9.3916 4.9799 8.8705-1.2555c7.2639-1.0281 10.272-1.012 16.608 0.08858 4.2559 0.73923 8.5172 1.3047 9.4697 1.2565 0.95248-0.04816 4.5899-2.127 8.0831-4.6198 6.8374-4.879 16.103-9.5693 18.935-9.5851 1.4246-8e-3 1.7471 0.87346 1.7344 4.7402-0.0238 7.2515-2.2765 15.296-6.3671 22.738l-3.7032 6.7372 1.6678 5.0212c2.0608 6.2046 1.5083 16.48-1.1966 22.254-1.0307 2.2-3.9015 6.925-6.3796 10.5-4.0442 5.8344-4.4996 7.0632-4.4468 12 0.0999 9.3403 1.6678 12.167 11.768 21.215 23.374 20.938 31.388 30.582 39.311 47.309 8.448 17.834 9.8635 29.244 6.7728 54.595-1.7729 14.542-1.4563 17.448 2.0758 19.058 3.7299 1.6995 6.8988-1.0429 10.889-9.4236 6.5971-13.856 10.624-32.317 10.624-48.702 0-17.497-2.7131-23.194-20.171-42.354-21.563-23.666-28.184-36.278-28.188-53.696-2e-3 -10.912 0.33291-12.839 3.3486-19.255 4.676-9.9478 14.629-18.28 26.101-21.851 8.1056-2.5228 20.898-2.5371 26.418-0.02958 14.504 6.5889 15.423 24.911 1.7318 34.534-8.1391 5.7204-21.076 4.0876-22.825-2.8806-1.0792-4.2997 1.1472-5.8448 7.368-5.1137 5.9557 0.69998 10.117-0.98061 12.237-4.9422 4.0505-7.5684-8.6599-13.068-20.847-9.0196-12.091 4.016-19.212 13.516-19.972 26.646-0.79116 13.667 3.6744 22.298 20.909 40.412 16.331 17.164 20.967 24.112 24.951 37.384 1.9641 6.5445 2.1499 8.8194 1.6338 20-1.0571 22.898-9.2712 55.081-16.927 66.321-1.7968 2.638-4.6168 5.4323-6.2668 6.2094-3.9986 1.8833-24.07 4.3709-45 5.5769-18.817 1.0843-21.587 1.0772-42.5-0.10804z"/>
</svg>
