<svg width="512" height="512" version="1.1" xmlns="http://www.w3.org/2000/svg" desc="Created with imagetracer.js version 1.2.5"><path d="M 382.5 108 L 393.5 109 L 397 112.5 L 398 114.5 L 398 126.5 L 397 127.5 L 395 145.5 L 389 164.5 L 377 188.5 L 359 214.5 L 330.5 245 L 327.5 246 L 308 262 L 306.5 265 L 283 280.5 L 282 282.5 L 282 302.5 L 281 303.5 L 281 322.5 L 280 327.5 L 218.5 389 Q 215.2 392.2 207.5 391 Q 201.8 388.6 201 381.5 L 206 370.5 L 235 335.5 L 241 321.5 L 242 301.5 L 239.5 298 L 233.5 303 L 228 303 L 214 329.5 L 191 354.5 L 191 356 L 155.5 383 L 133.5 393 L 119.5 398 L 111.5 399 L 106 393.5 L 107 392.5 L 112 374.5 Q 118 366 121 354.5 Q 134.6 330.6 153.5 312 Q 174.4 290.2 204 278 L 203 273.5 L 208 268.5 L 208 265 Q 203.5 263 194.5 264 L 183.5 266 L 169.5 272 L 134.5 301 L 123.5 305 Q 117.4 303.6 115 298.5 Q 113.7 289.7 118 286.5 L 178.5 226 Q 183.3 227.3 184.5 225 L 203.5 225 L 204.5 224 L 226.5 224 L 228 222.5 L 243 198.5 L 277.5 160 Q 300.8 137.8 330.5 122 L 354.5 113 L 366.5 110 L 381.5 109 L 382.5 108 Z M 374 121 L 353 126 L 351 128 L 356 135 Q 365 147 380 155 L 384 144 L 385 133 L 386 132 L 386 121 L 374 121 Z M 339 131 Q 322 138 310 148 Q 307 147 308 150 L 287 165 L 252 204 L 234 232 L 219 262 L 219 264 L 243 287 L 247 287 L 288 265 L 320 241 Q 339 224 354 204 L 368 182 L 375 169 L 375 165 L 362 155 L 350 144 L 349 141 L 339 131 Z M 210 236 L 209 237 L 188 237 Q 186 239 182 238 L 166 253 L 164 256 L 132 289 L 139 285 Q 152 271 169 260 L 179 255 L 193 252 Q 204 251 211 253 L 219 237 L 210 236 Z M 212 286 L 193 295 L 166 313 L 166 315 L 145 337 L 135 352 L 124 376 L 122 384 L 134 381 L 149 374 Q 167 364 182 351 Q 198 336 210 316 L 220 293 L 214 286 L 212 286 Z M 270 287 L 253 295 L 254 300 L 253 320 L 247 337 L 218 374 L 216 377 L 220 375 L 237 357 L 246 349 L 253 341 L 259 336 L 269 325 Q 268 320 270 319 L 270 287 Z "></path><path d="M 320.5 165 L 328.5 167 L 338 175.5 L 341 183.5 L 341 188.5 Q 339.1 197.1 333.5 202 L 323.5 207 L 317.5 207 L 313.5 206 L 305 199.5 Q 299 194.5 299 183.5 L 301 177.5 L 310.5 168 L 320.5 165 Z M 317 174 L 314 175 L 308 182 Q 307 190 310 194 Q 313 198 320 199 L 329 196 L 332 191 Q 334 183 331 180 L 324 174 L 317 174 Z "></path><path d="M 276.5 204 L 288.5 204 Q 295.9 206.6 300 212.5 Q 304.8 217.7 303 229.5 Q 299.7 237.7 292.5 242 Q 287.5 245 278.5 244 Q 270.9 242.6 267 237.5 Q 262.4 232.1 262 222.5 L 266 211.5 L 270.5 207 L 276.5 204 Z M 278 212 L 276 213 L 271 219 Q 270 227 272 232 L 276 235 L 283 237 L 290 235 L 295 228 Q 296 221 294 218 Q 291 210 278 212 Z "></path><path d="M 182.5 309 Q 187.3 308.3 188 311.5 L 185.5 316 Q 169.5 326 158 340.5 L 142 363.5 L 143.5 364 Q 165.3 351.8 181 333.5 L 192.5 319 Q 199.3 316.8 197 323.5 Q 186.3 341.3 170.5 354 L 147.5 370 L 134.5 377 L 131.5 377 Q 128.8 375.8 130 370.5 Q 143.3 342.8 164.5 323 L 182.5 309 Z "></path></svg>