<?xml version="1.0" encoding="UTF-8"?>
<svg width="512" height="512" desc="Created with imagetracer.js version 1.2.5" version="1.1" xmlns="http://www.w3.org/2000/svg">
 <path d="m382.5 108 11 1 3.5 3.5 1 2v12l-1 1-2 18-8 24-10 19-19.5 27.5-2.5 1.5-25.5 27.5-22.5 18.5q0.8 2.3-1.5 1.5l-22.5 15.5-1 2v20l-1 1v19l-1 5-60.5 60.5q-3.2 4.3-12 3-5.7-2.4-6.5-9.5l5-11 20.5-24.5q2.3 0.8 1.5-1.5 9.4-8.6 13-23l1-20-2.5-3.5-6 5h-3q-1.2-2.2-2.5 0.5l-14 26-31.5 33.5-27 20-22 10-14 5-8 1-5.5-5.5 1-1 5-18 12-25q12.6-20.9 29.5-37.5 20.9-21.8 50.5-34l-1-4.5 6-7q-4.2-4.3-14.5-2.5l-11 2-14 6-35 29-11 4q-6.1-1.4-8.5-6.5-1.3-8.8 3-12l60.5-60.5q4.8 1.3 6-1h20l1-1h21l1.5-1.5 15-24 34.5-38.5q22.5-21.5 51-37l26-10 12-3 15-1 1-1zm-8.5 13-21 5-2 2 5 7q9 12 24 20l2-4 4-18v-12h-12zm-35 10-24 13-28 21-19 21-5 3q-26 32-44 73v2l24 23h4l41-22 32-24q35-30 56-74l-14-12q-11-9-18-20l-5-4zm-129 105-1 1h-21q-2 2-6 1l-16 15-2 3-33 34h2l16-14q2 1 1-1l19-15 10-5 14-3q11-1 18 1l8-16-9-1zm2 50-19 9-26 18-22 24-10 15-11 24-2 8 12-3 15-7q18-10 33-23 16-15 28-35l10-23-6-7h-2zm58 1-17 8 1 5-1 20-2 8-6 12-30 37h3l20-21 7-6 8-9 6-5 10-11q-1-5 1-6v-32z"/>
 <path d="m320.5 165 8 2 9.5 8.5 3 8v5q-1.9 8.6-7.5 13.5l-10 5h-6l-4-1-8.5-6.5q-6-5-6-16l2-6 9.5-9.5 10-3zm-3.5 9-3 1-6 7q-1 9 2 13l10 4 9-3 3-5q2-8-1-11l-7-6h-7z"/>
 <path d="m277.5 204h11q7.4 2.6 11.5 8.5 4.8 5.2 3 17-3.3 8.2-10.5 12.5-5 3-14 2-7.6-1.4-11.5-6.5-4.6-5.4-5-15l5-12.5 10.5-6zm0.5 8-2 1-5 6q-1 8 1 13l4 3 7 2 7-2 5-7q1-7-1-10-3-8-16-6z"/>
 <path d="m182.5 309q4.8-0.7 5.5 2.5l-2.5 4.5q-16 10-27.5 24.5l-17 24 1.5 0.5 30.5-22 19.5-24q6.8-2.2 4.5 4.5-10.7 17.8-26.5 30.5l-23 16-16 7q-2.7-1.2-1.5-6.5 13.3-27.7 34.5-47.5l18-14z"/>
</svg>
