<svg xmlns="http://www.w3.org/2000/svg" xmlns:svg="http://www.w3.org/2000/svg" id="svg4921" width="853.333" height="853.333" version="1.1" viewBox="0 0 853.333 853.333"><metadata id="metadata4927"/><g id="g4929"><g id="g5494"><path id="path5498" d="M 0,426.66665 V 0 H 426.66665 853.33331 V 426.66665 853.33331 H 426.66665 0 Z" style="fill:#edeffb;stroke-width:1.33333"/><path id="path5496" d="M 0,426.66665 V 0 H 426.66665 853.33331 V 426.66665 853.33331 H 426.66665 0 Z m 259.99999,188.42996 c 33.03078,-11.89156 53.01577,-24.29321 81.68176,-50.68744 17.08712,-15.73297 29.90621,-32.32434 48.47081,-62.73429 2.77671,-4.54841 10.5797,-11.00823 13.29715,-11.00823 6.72931,0 2.35043,30.30012 -6.52073,45.12095 -2.34428,3.91652 -7.56232,11.04387 -11.59566,15.83854 -4.03333,4.79468 -8.21449,9.99026 -9.29146,11.54572 -1.07699,1.55547 -5.35768,7.02812 -9.51266,12.16146 -8.69357,10.74058 -13.19588,18.99468 -13.19588,24.192 0,2.61189 1.87063,5.43461 6.66224,10.05312 7.6829,7.40532 12.34123,8.23652 20.00443,3.56948 2.56667,-1.56315 23.42352,-21.51091 46.34856,-44.32835 l 41.68189,-41.48625 -0.0152,-31 c -0.0175,-35.51195 -1.63987,-31.04308 15.31811,-42.19297 19.77416,-13.00155 23.12308,-15.51264 36.24421,-27.17663 38.79409,-34.48586 59.86354,-60.50782 77.43,-95.6304 15.36684,-30.72467 22.99242,-57.71322 22.99242,-81.3751 0,-10.01528 -0.33756,-11.48812 -3.49216,-15.23715 -5.91432,-7.02877 -10.4078,-8.6183 -23.65621,-8.36818 -43.47857,0.82084 -86.76953,19.66194 -132.09164,57.48897 -24.75124,20.65804 -48.76957,48.24497 -69.78901,80.15813 -4.10554,6.23333 -7.65232,11.58209 -7.8817,11.88612 -0.22939,0.30404 -14.06832,0.74156 -30.75318,0.97228 -16.68485,0.23072 -31.56193,0.71224 -33.0602,1.07004 -3.30176,0.78849 -83.15433,80.9527 -87.12334,87.46334 -4.78175,7.84386 -3.8422,12.77908 3.84303,20.18667 3.66424,3.53185 7.88814,6.42155 9.38645,6.42155 1.49832,0 5.25031,-1.27106 8.33776,-2.82455 6.35768,-3.19897 30.67908,-20.90213 43.45347,-31.62909 4.67862,-3.92876 13.34689,-9.48391 19.26281,-12.34478 10.35596,-5.00804 11.26445,-5.20158 24.41472,-5.20158 7.51217,0 13.97617,0.514 14.36444,1.14224 1.51534,2.45188 -8.16668,12.48686 -16.54856,17.15186 -21.96396,12.22419 -43.09945,29.50226 -64.77137,52.94996 -17.22786,18.63951 -28.02484,35.45667 -38.45359,59.89451 -6.91659,16.20777 -11.44171,31.22382 -11.44171,37.96796 0,3.35993 1.18043,5.67389 4.67935,9.17281 5.70524,5.70524 6.99764,5.57391 31.32065,-3.18272 z m -8.76708,-23.54419 c -1.80221,-4.69648 13.66223,-38.16984 24.69412,-53.45138 8.27414,-11.46143 30.72759,-32.49025 48.94892,-45.84321 10.70592,-7.84551 35.86453,-20.25784 41.06071,-20.25784 4.63838,0 9.09197,4.63318 8.07585,8.40153 -1.56683,5.81072 -14.70831,30.46877 -19.52295,36.63197 -2.70676,3.46491 -7.19924,10.08966 -9.98329,14.72167 -7.63647,12.70532 -22.78623,26.34242 -41.56933,37.41877 -13.94008,8.22043 -46.90705,24.15939 -49.96952,24.15939 -0.57812,0 -1.35864,-0.8014 -1.73451,-1.7809 z m 37.14667,-29.74944 c 25.93458,-14.67229 33.96452,-21.56089 46.05229,-39.50662 4.8958,-7.26839 10.82077,-16.00849 13.16661,-19.42248 8.48854,-12.35363 4.6186,-12.68375 -12.07446,-1.03001 -20.37927,14.22713 -41.41328,34.28576 -51.7776,49.37654 -8.76981,12.76915 -10.61021,16.77957 -7.70017,16.77957 0.75877,0 6.30877,-2.78865 12.33333,-6.197 z m 106.52382,-111.69081 -15.52025,-15.22116 1.79656,-5.11217 c 3.35697,-9.55238 20.36493,-42.39009 29.2354,-56.44552 18.41024,-29.1714 43.87621,-57.76853 70.40564,-79.06233 9.01392,-7.235 48.30986,-30.271 51.63778,-30.271 0.86308,0 12.30062,10.74382 25.41675,23.87515 l 23.8475,23.87514 -2.29152,5.79152 c -3.81344,9.63799 -13.53078,27.2092 -21.02322,38.01483 -14.01445,20.21172 -52.41409,57.42829 -76.40805,74.05396 -14.26063,9.88136 -63.97196,35.72273 -68.72017,35.72273 -1.84618,0 -8.34439,-5.38247 -18.37642,-15.22115 z m 79.67311,-38.06619 c 11.08576,-5.65554 18.61608,-19.46307 16.61936,-30.47314 -4.40287,-24.27776 -34.34803,-35.66514 -50.7241,-19.28908 -10.42728,10.42728 -12.31629,23.3479 -5.19104,35.5062 4.16596,7.10868 6.21831,8.99746 14.58451,13.42214 8.07917,4.27286 17.35664,4.58593 24.71127,0.83388 z M 458.14167,398.1295 c -7.30947,-2.06794 -10.83446,-7.25863 -10.70666,-15.766 0.086,-5.72619 0.68866,-7.27422 3.91064,-10.04567 3.15924,-2.71745 4.80495,-3.16405 9.648,-2.61817 10.53135,1.18704 17.05811,11.37669 13.73555,21.44413 -0.87473,2.65048 -2.1662,5.17491 -2.86992,5.60983 -3.48029,2.15094 -9.01559,2.70613 -13.71761,1.37588 z m 69.30154,-37.20736 c 7.45948,-5.1406 14.75462,-15.06719 16.01658,-21.79402 1.39493,-7.43565 -1.77748,-14.42657 -11.1313,-24.52954 -8.96164,-9.6794 -13.37148,-11.91003 -23.57421,-11.92448 -10.99789,-0.0156 -22.94827,9.87237 -27.22301,22.52485 -2.3655,7.00143 -1.89034,10.15527 2.98829,19.83432 5.12991,10.1776 6.87403,12.01247 16.01235,16.84549 9.68326,5.12123 18.54905,4.80608 26.9113,-0.95662 z m -18.61749,-14.28763 c -9.05396,-2.74328 -13.60917,-12.00689 -9.65972,-19.64431 2.34936,-4.54316 4.48673,-5.65688 10.85624,-5.65688 9.78577,0 15.31108,5.45614 15.31108,15.11942 0,8.28449 -7.50061,12.91081 -16.5076,10.18177 z" style="fill:#506efc;stroke-width:1.33333"/></g></g></svg>