<svg xmlns="http://www.w3.org/2000/svg" width="512" height="512" desc="Created with imagetracer.js version 1.2.5" version="1.1"><path d="M 374.5 106 Q 384.8 104.7 391.5 107 L 399 113.5 L 401 123.5 L 400 124.5 L 400 136.5 L 397 150.5 Q 390.7 171.7 381 189.5 Q 362.7 222.7 335.5 247 L 317.5 263 L 288 283.5 L 287 286.5 L 287 330.5 L 230.5 387 L 220.5 396 L 214.5 398 Q 207.1 395.4 203 389.5 L 201 385.5 L 206 374.5 L 233 340.5 Q 242.1 328.1 241 305.5 Q 240.3 303.3 236.5 304 L 229 310.5 L 216 331.5 L 197 355 L 195.5 355 L 178.5 371 L 154.5 387 L 131.5 397 L 116.5 402 L 110.5 402 Q 105.5 399 104 392.5 L 109 373.5 L 122 345.5 Q 138 320 160.5 301 Q 176 287 195.5 277 L 201 271.5 L 203 266 L 180.5 266 L 177.5 267 L 164.5 274 L 127.5 302 Q 124.8 304.8 118.5 304 L 110 296.5 L 108 290.5 L 110 285.5 L 118 276.5 L 171.5 223 L 175.5 220 Q 181.7 221.7 183.5 219 L 221.5 219 L 226 215.5 Q 243.8 184.8 268.5 161 Q 290.3 139.8 317.5 124 Q 332.8 115.3 351.5 110 L 374.5 106 Z M 334 134 Q 305 147 284 167 Q 242 205 220 263 L 245 285 L 249 285 L 254 283 L 292 263 Q 311 250 328 234 L 356 203 Q 366 188 373 170 L 337 134 L 334 134 Z M 208 290 L 185 301 L 162 319 L 140 343 L 127 368 L 124 377 L 124 381 L 129 381 L 158 367 L 184 349 L 193 339 L 205 321 L 217 298 L 217 294 Q 216 289 208 290 Z"/><path d="M 317.5 163 L 324.5 164 L 328.5 166 L 338 175.5 L 343 183.5 L 343 191.5 Q 339.8 199.8 333.5 205 Q 328.8 209.8 319.5 210 Q 308.6 207.9 303 200.5 L 297 188.5 L 297 180.5 L 303 170 L 312.5 164 L 317.5 163 Z M 314 177 L 309 183 Q 308 190 311 193 L 319 197 Q 328 198 330 193 Q 332 185 329 182 Q 326 175 314 177 Z"/><path d="M 279.5 202 Q 293.9 203.1 300 212.5 L 304 221.5 L 304 228.5 Q 301.3 238.8 293.5 244 Q 288.5 248 277.5 246 Q 268.8 243.2 264 236.5 L 260 228.5 L 260 218.5 L 267.5 207 L 274.5 203 L 279.5 202 Z M 277 213 L 271 220 L 272 230 Q 275 235 283 236 L 291 234 L 293 229 L 293 222 L 290 216 L 285 213 L 277 213 Z"/><path d="M 196.5 307 Q 199.8 305.9 199 308.5 L 184 331.5 L 172.5 344 Q 159.4 354.6 143 361 Q 151.7 342 167.5 329 L 196.5 307 Z"/></svg>